HIERARCHY
ROOT hips
{
  OFFSET 0 10.6860622 2.3727825e-15
  CHANNELS 6 Xposition Yposition Zposition Yrotation Xrotation Zrotation
  JOINT leftUpperLeg
  {
    OFFSET 0.6642549969 -0.9402397400000004 0
    CHANNELS 3 Yrotation Xrotation Zrotation
    JOINT leftLowerLeg
    {
      OFFSET 0 -3.997221335632195 0
      CHANNELS 3 Yrotation Xrotation Zrotation
      JOINT leftFoot
      {
        OFFSET -0.13777839790000004 -4.6145792000000005 -0.22186036399999998
        CHANNELS 3 Yrotation Xrotation Zrotation
        JOINT leftToes
        {
          OFFSET -0.03777410834999995 -0.9130806927000008 0.85230013
          CHANNELS 3 Yrotation Xrotation Zrotation
          End Site
          {
            OFFSET -0.03777410834999995 -0.9130806927000008 0.85230013
          }
        }
      }
    }
  }
  JOINT rightUpperLeg
  {
    OFFSET -0.6642778626 -0.9402397400000004 0
    CHANNELS 3 Yrotation Xrotation Zrotation
    JOINT rightLowerLeg
    {
      OFFSET 0 -3.997221452859387 0
      CHANNELS 3 Yrotation Xrotation Zrotation
      JOINT rightFoot
      {
        OFFSET 0.1377926176 -4.6145792000000005 -0.22185782299999995
        CHANNELS 3 Yrotation Xrotation Zrotation
        JOINT rightToes
        {
          OFFSET 0.037780746850000047 -0.9130806927000008 0.85230167
          CHANNELS 3 Yrotation Xrotation Zrotation
          End Site
          {
            OFFSET 0.037780746850000047 -0.9130806927000008 0.85230167
          }
        }
      }
    }
  }
  JOINT spine
  {
    OFFSET 0 0.13988381660000015 0
    CHANNELS 3 Yrotation Xrotation Zrotation
    JOINT chest
    {
      OFFSET 0 0.6191039003973773 0
      CHANNELS 3 Yrotation Xrotation Zrotation
      JOINT upperChest
      {
        OFFSET 0 0.9855186130586943 0
        CHANNELS 3 Yrotation Xrotation Zrotation
        JOINT leftShoulder
        {
          OFFSET 0.1807663869 1.5087829790000005 0
          CHANNELS 3 Yrotation Xrotation Zrotation
          JOINT leftUpperArm
          {
            OFFSET 0.5985063006419806 0 0
            CHANNELS 3 Yrotation Xrotation Zrotation
            JOINT leftLowerArm
            {
              OFFSET 2.2993332369501065 0 0
              CHANNELS 3 Yrotation Xrotation Zrotation
              JOINT leftHand
              {
                OFFSET 2.395047042602395 0 0
                CHANNELS 3 Yrotation Xrotation Zrotation
                JOINT leftIndexProximal
                {
                  OFFSET 0.5766295810000004 0.04556643899499946 0.17265095988184
                  CHANNELS 3 Yrotation Xrotation Zrotation
                  JOINT leftIndexIntermediate
                  {
                    OFFSET 0.2957229000000008 -0.019352197700001517 -0.007932640616999987
                    CHANNELS 3 Yrotation Xrotation Zrotation
                    JOINT leftIndexDistal
                    {
                      OFFSET 0.19008243099999922 -0.012484908149998475 -0.002786250786000012
                      CHANNELS 3 Yrotation Xrotation Zrotation
                      End Site
                      {
                        OFFSET 0.19008243099999922 -0.012484908149998475 -0.002786250786000012
                      }
                    }
                  }
                }
                JOINT leftMiddleProximal
                {
                  OFFSET 0.5834975091000001 0.0524350405149987 0.02204081888183999
                  CHANNELS 3 Yrotation Xrotation Zrotation
                  JOINT leftMiddleIntermediate
                  {
                    OFFSET 0.33880573540000003 -0.019871473270000717 -0.00000971183179999946
                    CHANNELS 3 Yrotation Xrotation Zrotation
                    JOINT leftMiddleDistal
                    {
                      OFFSET 0.20676022730000088 -0.012221336379999448 0.0001471936708000235
                      CHANNELS 3 Yrotation Xrotation Zrotation
                      End Site
                      {
                        OFFSET 0.20676022730000088 -0.012221336379999448 0.0001471936708000235
                      }
                    }
                  }
                }
                JOINT leftLittleProximal
                {
                  OFFSET 0.5344154683999995 -0.012880921405001189 -0.24414037221816004
                  CHANNELS 3 Yrotation Xrotation Zrotation
                  JOINT leftLittleIntermediate
                  {
                    OFFSET 0.21758961730000093 -0.011650919939999227 0.011893592810000034
                    CHANNELS 3 Yrotation Xrotation Zrotation
                    JOINT leftLittleDistal
                    {
                      OFFSET 0.1475273964999999 -0.008152365682999818 0.006001092492999946
                      CHANNELS 3 Yrotation Xrotation Zrotation
                      End Site
                      {
                        OFFSET 0.1475273964999999 -0.008152365682999818 0.006001092492999946
                      }
                    }
                  }
                }
                JOINT leftRingProximal
                {
                  OFFSET 0.5799399463000003 0.026911854694997794 -0.12150566991816003
                  CHANNELS 3 Yrotation Xrotation Zrotation
                  JOINT leftRingIntermediate
                  {
                    OFFSET 0.26167887460000006 -0.013480186499999602 0.010996293000000053
                    CHANNELS 3 Yrotation Xrotation Zrotation
                    JOINT leftRingDistal
                    {
                      OFFSET 0.17667108799999987 -0.008990287899999228 0.0055541023999999065
                      CHANNELS 3 Yrotation Xrotation Zrotation
                      End Site
                      {
                        OFFSET 0.17667108799999987 -0.008990287899999228 0.0055541023999999065
                      }
                    }
                  }
                }
                JOINT leftThumbProximal
                {
                  OFFSET 0.11018806699999972 -0.09448718900500053 0.17047963138184
                  CHANNELS 3 Yrotation Xrotation Zrotation
                  JOINT leftThumbIntermediate
                  {
                    OFFSET 0.31062601459999983 -0.08126270900000132 0.15443142000000007
                    CHANNELS 3 Yrotation Xrotation Zrotation
                    JOINT leftThumbDistal
                    {
                      OFFSET 0.21627175790000086 -0.08833193599999878 0.018771167799999988
                      CHANNELS 3 Yrotation Xrotation Zrotation
                      End Site
                      {
                        OFFSET 0.21627175790000086 -0.08833193599999878 0.018771167799999988
                      }
                    }
                  }
                }
              }
            }
          }
        }
        JOINT neck
        {
          OFFSET 0 1.5463305265074576 0
          CHANNELS 3 Yrotation Xrotation Zrotation
          JOINT head
          {
            OFFSET 0 0.8456443600000344 0
            CHANNELS 3 Yrotation Xrotation Zrotation
            JOINT leftEye
            {
              OFFSET 0.30408573140000006 0.5104519199999995 0.1276382305
              CHANNELS 3 Yrotation Xrotation Zrotation
              End Site
              {
                OFFSET 0.30408573140000006 0.5104519199999995 0.1276382305
              }
            }
            JOINT rightEye
            {
              OFFSET -0.30409491089999996 0.5104519199999995 0.1276379445
              CHANNELS 3 Yrotation Xrotation Zrotation
              End Site
              {
                OFFSET -0.30409491089999996 0.5104519199999995 0.1276379445
              }
            }
            JOINT jaw
            {
              OFFSET -3.155239131000001e-7 -0.11984121820000082 0.60178107
              CHANNELS 3 Yrotation Xrotation Zrotation
              End Site
              {
                OFFSET -3.155239131000001e-7 -0.11984121820000082 0.60178107
              }
            }
          }
        }
        JOINT rightShoulder
        {
          OFFSET -0.1807303465 1.5087829790000005 0
          CHANNELS 3 Yrotation Xrotation Zrotation
          JOINT rightUpperArm
          {
            OFFSET -0.5985063796536958 0 0
            CHANNELS 3 Yrotation Xrotation Zrotation
            JOINT rightLowerArm
            {
              OFFSET -2.2993322059002854 0 0
              CHANNELS 3 Yrotation Xrotation Zrotation
              JOINT rightHand
              {
                OFFSET -2.395045314457259 0 0
                CHANNELS 3 Yrotation Xrotation Zrotation
                JOINT rightIndexProximal
                {
                  OFFSET -0.5764487688300002 0.0441371204405987 0.17361932004999997
                  CHANNELS 3 Yrotation Xrotation Zrotation
                  JOINT rightIndexIntermediate
                  {
                    OFFSET -0.29573011380000047 -0.01934826376999843 -0.007698921482999974
                    CHANNELS 3 Yrotation Xrotation Zrotation
                    JOINT rightIndexDistal
                    {
                      OFFSET -0.19008373999999884 -0.012503266380000655 -0.0026365778999999897
                      CHANNELS 3 Yrotation Xrotation Zrotation
                      End Site
                      {
                        OFFSET -0.19008373999999884 -0.012503266380000655 -0.0026365778999999897
                      }
                    }
                  }
                }
                JOINT rightMiddleProximal
                {
                  OFFSET -0.5834852037300005 0.05211639405060153 0.02307162440000001
                  CHANNELS 3 Yrotation Xrotation Zrotation
                  JOINT rightMiddleIntermediate
                  {
                    OFFSET -0.33880114510000003 -0.019952774050000954 0.0002455003561999819
                    CHANNELS 3 Yrotation Xrotation Zrotation
                    JOINT rightMiddleDistal
                    {
                      OFFSET -0.20675694929999955 -0.012273788999999091 0.00030209124000002766
                      CHANNELS 3 Yrotation Xrotation Zrotation
                      End Site
                      {
                        OFFSET -0.20675694929999955 -0.012273788999999091 0.00030209124000002766
                      }
                    }
                  }
                }
                JOINT rightLittleProximal
                {
                  OFFSET -0.5346811737299992 -0.011214256288399227 -0.24363941305000003
                  CHANNELS 3 Yrotation Xrotation Zrotation
                  JOINT rightLittleIntermediate
                  {
                    OFFSET -0.21757715980000092 -0.011771559690000988 0.01201554387
                    CHANNELS 3 Yrotation Xrotation Zrotation
                    JOINT rightLittleDistal
                    {
                      OFFSET -0.1475201849000004 -0.00822055339600003 0.006082065407000015
                      CHANNELS 3 Yrotation Xrotation Zrotation
                      End Site
                      {
                        OFFSET -0.1475201849000004 -0.00822055339600003 0.006082065407000015
                      }
                    }
                  }
                }
                JOINT rightRingProximal
                {
                  OFFSET -0.5800810755299999 0.027657985680600072 -0.12066365025000003
                  CHANNELS 3 Yrotation Xrotation Zrotation
                  JOINT rightRingIntermediate
                  {
                    OFFSET -0.26166445029999974 -0.013623118409999302 0.011164098990000045
                    CHANNELS 3 Yrotation Xrotation Zrotation
                    JOINT rightRingDistal
                    {
                      OFFSET -0.17666387530000027 -0.009072900100000503 0.005668185599999959
                      CHANNELS 3 Yrotation Xrotation Zrotation
                      End Site
                      {
                        OFFSET -0.17666387530000027 -0.009072900100000503 0.005668185599999959
                      }
                    }
                  }
                }
                JOINT rightThumbProximal
                {
                  OFFSET -0.10997596379000074 -0.09577489355940072 0.16989765924999997
                  CHANNELS 3 Yrotation Xrotation Zrotation
                  JOINT rightThumbIntermediate
                  {
                    OFFSET -0.31036620999999986 -0.08229339117999834 0.15440884469999996
                    CHANNELS 3 Yrotation Xrotation Zrotation
                    JOINT rightThumbDistal
                    {
                      OFFSET -0.21631306399999906 -0.08825326400000111 0.018656797720000014
                      CHANNELS 3 Yrotation Xrotation Zrotation
                      End Site
                      {
                        OFFSET -0.21631306399999906 -0.08825326400000111 0.018656797720000014
                      }
                    }
                  }
                }
              }
            }
          }
        }
      }
    }
  }
}
MOTION
Frames: 6
Frame Time: 0.03333333333333333
1.331003168485228 -7.238693077504076 -2.9401401741558573 -67.00379863440274 0 0 11.19642432617641 -45.95878688894488 43.993677788951196 176.77158955030248 38.26906751219665 178.90414409121274 14.571653538495724 55.43969734296263 15.27606218585707 0 0 0 -0.7494982952396104 -49.43202835345107 -14.086048679364797 -179.435865704363 42.479067442319966 168.26034152837033 -14.579842739922652 55.438673923469814 -15.284262417403813 0 0 0 -1.0503286259533724 -0.04150392493070893 -0.21877277928494782 3.277423949818691 8.218787094550088 0.530132299114334 0 0 0 -31.846885224521507 1.8123923985531827 -8.503877710549489 -32.64068464979464 -0.43592915679949984 -11.500151133412878 -60.75261271815185 -1.7073551476710225 -13.462125266686105 0.8526319715838215 31.060466786266378 -0.11424582287666778 0 0 0 0 0 0 0 0 0 0 0 0 0 0 0 0 0 0 0 0 0 0 0 0 0 0 0 0 0 0 0 0 0 0 0 0 0 0 0 0 0 0 0 0 0 -1.2027187598975801 23.430022055671134 -5.143040933474012 -0.06362501317056116 -4.487600276105043 0.6516886592618731 0 0 0 0 0 0 0 0 0 15.09570951393982 -2.8143631450794704 31.079916593656993 20.478137158320088 -44.22118042351618 -45.86570624442534 26.425084931612737 -2.9595673281717283 18.587259008487028 6.268529340732471 -18.398507918800288 -48.66950942510145 0 0 0 0 0 0 0 0 0 0 0 0 0 0 0 0 0 0 0 0 0 0 0 0 0 0 0 0 0 0 0 0 0 0 0 0 0 0 0 0 0 0 0 0 0
1.331003168485228 -7.238693077504076 -2.9401401741558573 -67.00379863440274 0 0 11.196420962756386 -45.95878688894488 43.9936795560408 176.77158955030248 38.26906751219665 178.90414409121274 14.571653538495724 55.43969734296263 15.27606218585707 0 0 0 -0.7494982952396104 -49.43202835345107 -14.086048679364797 -179.435865704363 42.479067442319966 168.26034152837033 -14.579842739922652 55.438673923469814 -15.284262417403813 0 0 0 -1.9537593929300274 -0.04638628432519827 -0.29194266219170356 2.5541806421677244 8.225651990565439 0.40625650923970164 0 0 0 -30.308021555881993 2.2012365278956336 -7.9980612766181265 -32.64068464979464 -0.43592915679949984 -11.500151133412878 -61.738151547436864 -1.9448781674545164 -13.603114713232728 0.8243166446761908 31.052569473948456 0.027975677923552066 0 0 0 0 0 0 0 0 0 0 0 0 0 0 0 0 0 0 0 0 0 0 0 0 0 0 0 0 0 0 0 0 0 0 0 0 0 0 0 0 0 0 0 0 0 -1.28125331424222 24.155191471855613 -5.33521147204352 -0.06649915850774793 -4.637065956297934 0.6736305021760496 0 0 0 0 0 0 0 0 0 14.974862158604124 -2.7114634690137147 31.08099536280173 26.23607820030518 -46.019406710006656 -53.805491755908854 26.43162689012562 -2.9635431124655844 18.591285595908275 6.470306686973506 -18.1971226600039 -47.869370662690365 0 0 0 0 0 0 0 0 0 0 0 0 0 0 0 0 0 0 0 0 0 0 0 0 0 0 0 0 0 0 0 0 0 0 0 0 0 0 0 0 0 0 0 0 0
1.331003168485228 -7.238693077504076 -2.9401401741558573 -67.00379863440274 0 0 11.196420962756386 -45.95878688894488 43.9936795560408 176.77158955030248 38.26906751219665 178.90414409121274 14.571653538495724 55.43969734296263 15.27606218585707 0 0 0 -0.7494982952396104 -49.43202835345107 -14.086048679364797 -179.435865704363 42.479067442319966 168.26034152837033 -14.57984571188446 55.438673923469814 -15.28426690788802 0 0 0 -2.8564485863625557 -0.0524162096883428 -0.36496597998378794 1.8312805164479968 8.230965939939665 0.28236448073691217 0 0 0 -28.769520173080974 2.5753510934652213 -7.483241470518031 -32.64068464979464 -0.43592915679949984 -11.500151133412878 -62.72221585622714 -2.1845379334396338 -13.739876981659755 0.7959821009996887 31.04472064938039 0.17018892032451743 0 0 0 0 0 0 0 0 0 0 0 0 0 0 0 0 0 0 0 0 0 0 0 0 0 0 0 0 0 0 0 0 0 0 0 0 0 0 0 0 0 0 0 0 0 -1.3628308131616942 24.879307774809295 -5.529370504518196 -0.06943012392481974 -4.786522572104789 0.6955840029315051 0 0 0 0 0 0 0 0 0 14.854028418164718 -2.608565279683748 31.081846259477306 32.49765192209228 -47.2269458362709 -62.23722344239442 26.43816583321368 -2.9675186973118115 18.595311681929022 6.674618554616678 -17.998589298825614 -47.07004153648509 0 0 0 0 0 0 0 0 0 0 0 0 0 0 0 0 0 0 0 0 0 0 0 0 0 0 0 0 0 0 0 0 0 0 0 0 0 0 0 0 0 0 0 0 0
1.331003168485228 -7.238693077504076 -2.9401401741558573 -67.00379863440274 0 0 11.196420962756386 -45.95878688894488 43.9936795560408 176.77158955030248 38.26906751219665 178.90414409121274 14.571653538495724 55.43969734296263 15.27606218585707 0 0 0 -0.7494982952396104 -49.43202835345107 -14.086048679364797 -179.43586436592815 42.479067442319966 168.26034266177678 -14.579842739922652 55.438673923469814 -15.284262417403813 0 0 0 -3.7582802857091138 -0.059589702671876105 -0.4378169049112512 1.1087864320198144 8.23473233099338 0.1584860332198082 0 0 0 -27.23205185894586 2.934404931775287 -6.960041799488504 -32.64068464979464 -0.43592915679949984 -11.500151133412878 -63.70467959572919 -2.4262146307542007 -13.872361526113496 0.7676275167795863 31.0369362432512 0.31239072665300005 0 0 0 0 0 0 0 0 0 0 0 0 0 0 0 0 0 0 0 0 0 0 0 0 0 0 0 0 0 0 0 0 0 0 0 0 0 0 0 0 0 0 0 0 0 -1.447513306277366 25.60231022823799 -5.72559872726251 -0.0724200072855759 -4.935973277342692 0.717549769701978 0 0 0 0 0 0 0 0 0 14.7332190388038 -2.5056725178339385 31.082489281226117 39.05885183209681 -47.779196338477014 -70.95546394271709 26.444707876907636 -2.9714949376505317 18.599335085891695 6.881398350307873 -17.802971106364858 -46.27161782399332 0 0 0 0 0 0 0 0 0 0 0 0 0 0 0 0 0 0 0 0 0 0 0 0 0 0 0 0 0 0 0 0 0 0 0 0 0 0 0 0 0 0 0 0 0
1.331003168485228 -7.238693077504076 -2.9401401741558573 -67.00379863440274 0 0 11.196420962756386 -45.95878688894488 43.9936795560408 176.77158955030248 38.26906751219665 178.90414409121274 14.571653538495724 55.43969734296263 15.27606218585707 0 0 0 -0.7494982952396104 -49.43202835345107 -14.086048679364797 -179.435865704363 42.479067442319966 168.26034152837033 -14.579842739922652 55.438673923469814 -15.284262417403813 0 0 0 -4.659144428257573 -0.06789796593556871 -0.5104695812327457 0.38675921324285395 8.236950256916325 0.03465036938990921 0 0 0 -25.696289573785073 3.2781039493230955 -6.429098265528341 -32.64068464979464 -0.43592915679949984 -11.500151133412878 -64.68542132179752 -2.6697913664013266 -14.000531421343865 0.7392543841337893 31.029224210387582 0.45458271594411576 0 0 0 0 0 0 0 0 0 0 0 0 0 0 0 0 0 0 0 0 0 0 0 0 0 0 0 0 0 0 0 0 0 0 0 0 0 0 0 0 0 0 0 0 0 -1.5353656038037453 26.324117777900092 -5.9239727347466316 -0.07546691070794033 -5.085413942366712 0.7395260879312077 0 0 0 0 0 0 0 0 0 14.612426569889159 -2.4027846367410977 31.082912172906767 45.65982814522801 -47.65217272502084 -79.69896685026711 26.451248436889596 -2.9754720472395304 18.603359609545198 7.0905717727418915 -17.610317087567886 -45.474175558141376 0 0 0 0 0 0 0 0 0 0 0 0 0 0 0 0 0 0 0 0 0 0 0 0 0 0 0 0 0 0 0 0 0 0 0 0 0 0 0 0 0 0 0 0 0
1.331003168485228 -7.238693077504076 -2.9401401741558573 -67.00379863440274 0 0 11.196420962756386 -45.95878688894488 43.9936795560408 176.77158955030248 38.26906751219665 178.90414409121274 14.571653538495724 55.43969734296263 15.27606218585707 0 0 0 -0.7494968318283202 -49.43202310228467 -14.08604740134205 -179.43586386741546 42.479085964264115 168.26034323557099 -14.579842739922652 55.438673923469814 -15.284262417403813 0 0 0 -5.558929652097829 -0.07733516052455079 -0.5828958710229867 -0.33473945106637093 8.237621417035113 -0.08911299983616684 0 0 0 -24.162879793011584 3.606191052518714 -5.891058719245259 -32.64068464979464 -0.43592915679949984 -11.500151133412878 -65.66432800712978 -2.915145177203808 -14.124351727166415 0.7108608087468066 31.021556637613163 0.5967638745256518 0 0 0 0 0 0 0 0 0 0 0 0 0 0 0 0 0 0 0 0 0 0 0 0 0 0 0 0 0 0 0 0 0 0 0 0 0 0 0 0 0 0 0 0 0 -1.6264547128990374 27.044664738375513 -6.124572950648248 -0.07857293837780155 -5.234843005219237 0.7615145829731749 0 0 0 0 0 0 0 0 0 14.491645119360516 -2.2999006626912983 31.083112062316253 52.687560156904155 -46.48376673755931 -88.44204315567887 26.457787513233825 -2.9794489574457415 18.607384162376555 7.302060829467124 -17.42067638326373 -44.677793955636275 0 0 0 0 0 0 0 0 0 0 0 0 0 0 0 0 0 0 0 0 0 0 0 0 0 0 0 0 0 0 0 0 0 0 0 0 0 0 0 0 0 0 0 0 0
